<?xml version="1.0" encoding="UTF-8"?>
<svg id="Layer_1" data-name="Layer 1" xmlns="http://www.w3.org/2000/svg" viewBox="0 0 190 190">
  <defs>
    <style>
      .cls-1 {
        fill: #2b6cb0;
      }

      .cls-1, .cls-2 {
        stroke-width: 0px;
      }

      .cls-2 {
        fill: #103669;
      }
    </style>
  </defs>
  <g id="NEwf9V.tif">
    <g>
      <path class="cls-1" d="M84.59,140.16c-2.19.92-4.41,1.77-6.56,2.78-5.15,2.41-8.98,1.98-13.06-1.99-5.5-5.37-10.81-10.92-16.21-16.38-3.99-4.04-4.44-8.58-2.03-13.59.84-1.74,1.52-3.56,2.28-5.34.58-1.08,1.21-2.14,1.73-3.24,3.65-7.73,7.1-15.57,10.96-23.2,4.46-8.81,9.27-17.43,13.92-26.14,4.9-6.16,9.49-12.59,14.76-18.41,10.23-11.3,23.42-17.86,37.89-21.97,13.57-3.85,27.35-3.22,41.12-1.28,5.33.75,8.46,3.9,9.23,9.16,3.02,20.73,1.42,40.82-8.72,59.64-5.38,9.98-12.74,18.29-21.51,25.37-3.85,3.11-7.9,5.97-11.87,8.94-.57.23-1.15.42-1.69.69-10.92,5.6-21.81,11.3-32.78,16.8-5.74,2.88-11.65,5.44-17.48,8.14ZM150.69,52.41c-.04-7.27-5.81-13-13.23-13.13-7.03-.13-13.32,6.06-13.34,13.12-.02,7,6.19,13.29,13.19,13.36,7.2.07,13.42-6.13,13.38-13.34Z"/>
      <path class="cls-2" d="M84.59,140.16c5.83-2.7,11.74-5.26,17.48-8.14,10.97-5.51,21.86-11.2,32.78-16.8.54-.28,1.13-.46,1.69-.69-.1,10.25.2,20.52-.43,30.74-.45,7.4-5.28,12.56-11.36,16.39-8.81,5.54-17.69,10.98-26.6,16.37-1.55.94-3.35,1.65-5.13,2-4.34.86-8.44-2.87-8.47-7.7-.06-10.72.02-21.44.03-32.16Z"/>
      <path class="cls-2" d="M75.63,53.07c-4.66,8.7-9.47,17.33-13.92,26.14-3.86,7.63-7.31,15.46-10.96,23.2-.52,1.11-1.15,2.16-1.73,3.24-10.11,0-20.21-.01-30.32.02-3.23.01-5.95-.92-7.62-3.87-1.7-3-1.26-5.87.48-8.76,5.48-9.09,10.85-18.24,16.32-27.34,5.03-8.35,12.6-12.46,22.22-12.65,8.51-.17,17.02,0,25.53.03Z"/>
    </g>
  </g>
</svg>