<?xml version="1.0" encoding="UTF-8"?>
<svg id="Layer_1" data-name="Layer 1" xmlns="http://www.w3.org/2000/svg" viewBox="0 0 647.59 163.36">
  <defs>
    <style>
      .cls-1 {
        fill: #fcfdfd;
      }

      .cls-1, .cls-2, .cls-3 {
        stroke: #fff;
        stroke-miterlimit: 10;
        stroke-width: 2px;
      }

      .cls-2 {
        fill: #2b6cb0;
      }

      .cls-3, .cls-4 {
        fill: #103669;
      }

      .cls-4, .cls-5 {
        stroke-width: 0px;
      }

      .cls-5 {
        fill: #fff;
      }
    </style>
  </defs>
  <g id="NEwf9V.tif">
    <g>
      <path class="cls-2" d="M71.09,124.76c-2.06.87-4.14,1.67-6.16,2.61-4.84,2.27-8.44,1.87-12.27-1.87-5.16-5.05-10.16-10.27-15.24-15.41-3.75-3.8-4.18-8.07-1.9-12.78.79-1.64,1.43-3.34,2.14-5.02.54-1.02,1.14-2.01,1.63-3.05,3.43-7.27,6.68-14.64,10.3-21.82,4.19-8.28,8.71-16.39,13.08-24.58,4.6-5.79,8.92-11.84,13.87-17.32,9.62-10.63,22.01-16.8,35.6-20.66,12.75-3.62,25.7-3.02,38.64-1.2,5.01.7,7.95,3.66,8.68,8.62,2.84,19.5,1.34,38.39-8.19,56.09-5.05,9.38-11.97,17.2-20.21,23.86-3.62,2.92-7.43,5.61-11.15,8.41-.53.22-1.08.39-1.59.65-10.27,5.27-20.49,10.62-30.8,15.8-5.4,2.71-10.94,5.12-16.42,7.66ZM133.21,42.23c-.04-6.84-5.46-12.23-12.43-12.35-6.61-.12-12.52,5.7-12.53,12.34-.02,6.58,5.82,12.5,12.39,12.57,6.76.07,12.61-5.76,12.57-12.55Z"/>
      <path class="cls-3" d="M71.09,124.76c5.48-2.54,11.03-4.95,16.42-7.66,10.31-5.18,20.54-10.53,30.8-15.8.51-.26,1.06-.44,1.59-.65-.09,9.64.19,19.3-.4,28.91-.43,6.96-4.96,11.81-10.68,15.41-8.28,5.21-16.62,10.33-25,15.4-1.46.88-3.15,1.55-4.82,1.88-4.08.8-7.93-2.7-7.96-7.24-.05-10.08.01-20.16.03-30.24Z"/>
      <path class="cls-3" d="M62.68,42.85c-4.38,8.19-8.89,16.3-13.08,24.58-3.63,7.17-6.87,14.54-10.3,21.82-.49,1.04-1.08,2.03-1.63,3.05-9.5,0-19-.01-28.49.02-3.04,0-5.59-.87-7.16-3.64-1.6-2.82-1.18-5.52.45-8.24,5.15-8.55,10.19-17.16,15.34-25.71,4.73-7.85,11.84-11.72,20.88-11.9,7.99-.16,15.99,0,23.99.03Z"/>
      <path class="cls-1" d="M133.21,42.23c.04,6.79-5.81,12.62-12.57,12.55-6.58-.07-12.41-5.98-12.39-12.57.02-6.64,5.93-12.46,12.53-12.34,6.97.13,12.4,5.52,12.43,12.35Z"/>
    </g>
  </g>
  <g>
    <path class="cls-2" d="M177.37,43.43c8.97,5.83,18.03,7.96,22.01,7.96,2.77,0,3.42-1.11,3.42-2.22,0-1.3-.83-1.85-2.04-2.13-3.24-.83-12.58-1.85-19.42-7.87-3.51-3.15-5.92-7.5-5.92-13.98,0-13.42,10.36-22.58,27.28-22.58,8.14,0,17.76,2.13,23.86,5.28v21.94c-8.69-4.35-16.83-5.92-20.25-5.92-2.68,0-3.42,1.02-3.42,2.04,0,1.39,1.02,1.94,2.13,2.31,2.77.83,12.02,1.94,18.59,7.13,4.53,3.7,6.75,8.42,6.75,14.44,0,12.87-10.36,21.84-27.93,21.84-8.42,0-18.5-2.04-25.06-5.46v-22.77Z"/>
    <path class="cls-2" d="M250.89,26.39h-18.68V3.62h64.92v22.77h-18.68v44.24h-27.56V26.39Z"/>
    <path class="cls-2" d="M314.33,3.62h26.36l25.53,67.01h-29.78l-2.31-8.79h-15.35l-2.59,8.79h-27.38L314.33,3.62ZM329.68,45l-2.96-13.61h-.19l-2.96,13.61h6.1Z"/>
    <path class="cls-2" d="M370.83,3.62h27c13.87,0,32.55,3.61,32.55,21.01,0,7.4-2.96,12.68-7.77,16.2.83,3.61,3.61,6.39,9.25,6.39,4.44,0,9.62-1.57,13.96-4.81v24.44c-4.07,2.68-10.82,4.81-17.76,4.81-15.81,0-26.82-9.9-29.5-23.23h-.19v22.21h-27.56V3.62ZM400.42,33.24c4.35,0,6.29-2.31,6.29-5.18s-2.04-5.09-6.29-5.09h-2.04v10.27h2.04Z"/>
    <path class="cls-2" d="M454.89,26.39h-18.68V3.62h64.92v22.77h-18.68v44.24h-27.56V26.39Z"/>
    <path class="cls-2" d="M508.25,40.19V3.62h27.56v34.71c0,6.29,2.03,10.74,8.42,10.74s8.23-3.89,8.23-10.64V3.62h24.79v36.19c0,10.27-2.59,16.75-6.1,21.01-6.1,7.4-17.2,10.83-28.58,10.83s-22.1-3.7-28.02-10.64c-3.33-3.89-6.29-9.9-6.29-20.83Z"/>
    <path class="cls-2" d="M585.28,3.62h25.34c16.09,0,34.13,4.63,34.13,23.79,0,17.22-14.43,24.16-30.98,24.16h-.93v19.07h-27.56V3.62ZM613.58,34.54c4.72,0,6.94-2.5,6.94-5.65s-2.31-5.65-6.94-5.65h-.74v11.29h.74Z"/>
  </g>
  <g>
    <g>
      <polygon class="cls-4" points="183.01 102.99 183.01 146.24 174.59 146.24 174.59 82.35 219.73 129.71 219.73 86.28 228.16 86.28 228.16 150.34 183.01 102.99"/>
      <path class="cls-5" d="M175.59,84.85l45.15,47.36v-44.92h6.43v60.57l-45.15-47.36v44.75h-6.42v-60.39M173.59,79.85v67.39h10.42v-41.75l41.7,43.74,3.45,3.62v-67.56h-10.43v41.93l-41.7-43.74-3.45-3.62h0Z"/>
    </g>
    <g>
      <path class="cls-4" d="M257.11,147.28c-12.99,0-18.8-9.97-18.8-19.86,0-11.84,7.59-20.12,18.45-20.12,8.64,0,12.99,4.92,14.45,7.03,2.32,3.3,3.75,8.99,3.56,14.16l-.03.96h-27.96c.5,6,4.74,10.25,10.41,10.25,2.66,0,4.8-.75,6.74-2.38,1.43-1.2,2.69-2.88,3.46-4.6l.44-.99,7.02,3.86-.45.87c-1.19,2.28-2.88,4.51-4.64,6.1-3.48,3.11-7.73,4.69-12.65,4.69ZM266.1,122.25c-1.28-4.46-4.91-7.38-9.33-7.38s-8.07,3.04-9.33,7.38h18.67Z"/>
      <path class="cls-5" d="M256.76,108.31c7.03,0,11.46,3.48,13.63,6.6,2.26,3.22,3.56,8.78,3.39,13.56h-28.04c.09,7.47,5.21,12.25,11.46,12.25,2.95,0,5.3-.87,7.38-2.61,1.65-1.39,2.95-3.22,3.73-4.95l5.21,2.87c-1.04,2-2.6,4.17-4.43,5.82-3.3,2.95-7.38,4.43-11.98,4.43-8.68,0-17.8-5.47-17.8-18.86,0-10.77,6.6-19.12,17.45-19.12M246.17,123.25h21.19c-1.04-5.65-5.3-9.38-10.59-9.38s-9.64,4-10.59,9.38M256.76,106.31c-11.45,0-19.45,8.68-19.45,21.12,0,14.41,9.94,20.86,19.8,20.86,5.1,0,9.71-1.71,13.32-4.94,1.85-1.68,3.62-4,4.87-6.39l.9-1.73-1.71-.94-5.21-2.87-1.71-.94h8.14l.07-1.93c.19-5.37-1.31-11.31-3.75-14.78-1.55-2.24-6.16-7.45-15.27-7.45h0ZM248.85,121.25c1.42-3.26,4.43-5.38,7.92-5.38s6.51,2.05,7.92,5.38h-15.84ZM247.91,130.47h19.42l-.84,1.87c-.71,1.58-1.88,3.13-3.2,4.24-1.77,1.48-3.65,2.14-6.09,2.14-4.86,0-8.47-3.3-9.29-8.25h0Z"/>
    </g>
    <g>
      <polygon class="cls-4" points="277.61 108.18 286.77 108.18 296.76 131.12 308.08 103.77 319.31 131.12 329.39 108.18 338.55 108.18 319.05 150.25 307.99 123.44 296.93 150.26 277.61 108.18"/>
      <path class="cls-5" d="M308.08,106.4l11.2,27.28,10.77-24.5h6.95l-17.88,38.58-11.11-26.94-11.11,26.94-17.71-38.58h6.95l10.68,24.5,11.29-27.28M308.08,101.15l-1.86,4.48-9.49,22.93-8.8-20.19-.52-1.2h-11.37l1.3,2.83,17.71,38.58,1.92,4.17,1.75-4.24,9.26-22.46,9.26,22.46,1.74,4.22,1.92-4.14,17.88-38.58,1.32-2.84h-11.38l-.53,1.2-8.87,20.19-9.41-22.93-1.84-4.49h0Z"/>
    </g>
    <g>
      <path class="cls-4" d="M366.46,146.24v-59.96h11.42c2.24,0,9.05,0,13.91,3.87,1.67,1.27,5.59,5.09,5.59,12.77,0,4.6-1.55,8.29-4.6,11,7.26,2.71,9.9,9.59,9.9,14.99,0,6.2-3.25,10.94-6.29,13.3-4.69,3.72-9.95,4.03-14.51,4.03h-15.41ZM381.27,138.16c3.24,0,6.92-.17,9.54-2.22,2.16-1.58,3.44-4.27,3.44-7.21,0-4.74-3.09-6.92-4.42-7.64-2-1.12-4.88-1.62-9.34-1.62h-5.6v18.68h6.38ZM378.75,111.74c4.73,0,10.37-1.5,10.37-8.65,0-7.6-6.39-8.73-10.2-8.73h-4.04v17.38h3.86Z"/>
      <path class="cls-5" d="M377.88,87.28c3.21,0,9.03.26,13.29,3.65,1.82,1.39,5.21,4.95,5.21,11.99,0,2.87-.61,7.91-5.73,11.38,8.07,2,11.03,9.04,11.03,14.6s-2.78,10.08-5.9,12.51c-4.6,3.65-9.9,3.82-13.89,3.82h-14.41v-57.96h10.42M373.89,112.74h4.86c3.39,0,11.37-.69,11.37-9.65,0-9.56-9.38-9.73-11.2-9.73h-5.04v19.38M373.89,139.16h7.38c3.73,0,7.38-.26,10.16-2.43,2.26-1.65,3.82-4.52,3.82-7.99,0-4.61-2.69-7.3-4.95-8.52-2.17-1.22-5.21-1.74-9.81-1.74h-6.6v20.68M377.88,85.28h-12.42v61.96h16.41c4.73,0,10.18-.33,15.14-4.26,3.21-2.5,6.66-7.52,6.66-14.08,0-5.37-2.47-12.13-9.14-15.33,2.09-2.3,3.85-5.71,3.85-10.65,0-8.13-4.19-12.21-6-13.58-5.1-4.06-12.17-4.06-14.5-4.06h0ZM375.89,95.36h3.04c4.2,0,9.2,1.34,9.2,7.73,0,7.65-7.05,7.65-9.37,7.65h-2.86v-15.38h0ZM375.89,120.48h4.6c4.28,0,7,.46,8.83,1.48,1.2.65,3.93,2.57,3.93,6.77,0,2.62-1.12,5.01-3,6.38l-.03.02-.03.02c-2.14,1.67-5,2.01-8.93,2.01h-5.38v-16.68h0Z"/>
    </g>
    <g>
      <path class="cls-4" d="M427.28,147.28c-2.68,0-7.77-.63-11.75-4.83-2.99-3.26-3.57-6.71-3.57-11.55v-22.72h8.25v22.03c0,2.41,0,5.14,1.53,7.12.85,1.09,2.51,2.39,5.54,2.39s4.69-1.3,5.55-2.4c1.52-1.98,1.52-4.71,1.52-7.12v-22.03h8.25v22.72c0,4.84-.58,8.29-3.56,11.54-4,4.22-9.08,4.84-11.76,4.84Z"/>
      <path class="cls-5" d="M441.61,109.18v21.72c0,4.43-.43,7.73-3.3,10.86-3.21,3.39-7.47,4.52-11.03,4.52s-7.81-1.13-11.03-4.52c-2.87-3.13-3.3-6.43-3.3-10.86v-21.72h6.25v21.03c0,2.52,0,5.47,1.74,7.73.96,1.22,2.87,2.78,6.34,2.78s5.38-1.56,6.34-2.78c1.74-2.26,1.74-5.21,1.74-7.73v-21.03h6.25M443.61,107.18h-10.25v23.03c0,2.36,0,4.79-1.32,6.52-.71.9-2.12,2-4.75,2s-4.04-1.1-4.76-2.02c-1.31-1.7-1.31-4.14-1.31-6.5v-23.03h-10.25v23.72c0,4.24.29,8.36,3.82,12.21,4.27,4.5,9.66,5.17,12.5,5.17s8.24-.67,12.48-5.14c3.56-3.88,3.85-8,3.85-12.24v-23.72h0Z"/>
    </g>
    <g>
      <path class="cls-4" d="M464.27,147.28c-2.4,0-10.45-.71-13.54-9.89l-.3-.88,7.21-3.03.36.99c.57,1.58,2.34,5.25,6.35,5.25,3.37,0,4.9-2.45,4.9-4.73,0-2.68-1.79-3.58-5.22-5.08-4.17-1.84-7.27-3.31-9.14-5.58-1.66-2.07-1.88-4.16-1.88-5.94,0-6.63,4.62-11.08,11.51-11.08,4.84,0,8.68,2.52,10.8,7.1l.4.86-6.93,3.65-.42-1.01c-.79-1.9-2.33-3.03-4.11-3.03-1.62,0-3.34.81-3.34,3.08,0,1.82.92,2.38,5.21,4.21,4.98,2.08,7.8,3.83,9.42,5.86,1.89,2.31,2.13,4.66,2.13,6.45,0,7.67-5.39,12.82-13.42,12.82Z"/>
      <path class="cls-5" d="M464.53,108.31c1.91,0,7.03.35,9.9,6.52l-5.12,2.69c-.87-2.09-2.69-3.65-5.04-3.65s-4.34,1.3-4.34,4.08c0,2.61,1.74,3.39,5.82,5.13,5.21,2.17,7.64,3.82,9.03,5.56,1.56,1.91,1.91,3.82,1.91,5.82,0,7.56-5.47,11.82-12.42,11.82-1.48,0-9.55-.17-12.59-9.21l5.38-2.26c.69,1.91,2.78,5.91,7.29,5.91,4.08,0,5.9-3.04,5.9-5.74,0-3.39-2.43-4.52-5.82-6-4.34-1.91-7.12-3.3-8.77-5.3-1.39-1.74-1.65-3.48-1.65-5.3,0-6.34,4.43-10.08,10.51-10.08M464.53,106.31c-7.48,0-12.51,4.85-12.51,12.08,0,1.95.25,4.25,2.09,6.55,2.03,2.46,5.23,3.99,9.52,5.88,3.7,1.61,4.62,2.27,4.62,4.17,0,.38-.11,3.74-3.9,3.74-3.38,0-4.91-3.21-5.41-4.59l-.72-1.97-1.94.81-5.38,2.26-1.71.72.59,1.76c3.3,9.81,11.92,10.57,14.48,10.57,8.62,0,14.42-5.55,14.42-13.82,0-1.96-.27-4.53-2.36-7.09-1.74-2.18-4.59-3.96-9.81-6.14-4.25-1.81-4.59-2.15-4.59-3.28,0-1.81,1.47-2.08,2.34-2.08,1.37,0,2.56.9,3.19,2.42l.84,2.02,1.94-1.02,5.12-2.69,1.68-.89-.8-1.73c-2.3-4.95-6.46-7.67-11.71-7.67h0Z"/>
    </g>
    <g>
      <path class="cls-4" d="M485.06,146.24v-38.06h8.25v38.06h-8.25ZM489.19,100.97c-2.99,0-5.43-2.44-5.43-5.43s2.44-5.43,5.43-5.43,5.43,2.44,5.43,5.43-2.43,5.43-5.43,5.43Z"/>
      <path class="cls-5" d="M489.19,91.1c2.43,0,4.43,2,4.43,4.43s-2,4.43-4.43,4.43-4.43-2-4.43-4.43,2-4.43,4.43-4.43M492.31,109.18v36.06h-6.25v-36.06h6.25M489.19,89.1c-3.54,0-6.43,2.89-6.43,6.43s2.88,6.43,6.43,6.43,6.43-2.89,6.43-6.43-2.88-6.43-6.43-6.43h0ZM494.31,107.18h-10.25v40.06h10.25v-40.06h0Z"/>
    </g>
    <g>
      <path class="cls-4" d="M526.91,146.24v-23.16c0-2.14-.17-4.35-1.44-5.99-1.14-1.47-2.86-2.22-5.11-2.22-2.38,0-4.2.79-5.57,2.42-2.1,2.48-2.37,6.16-2.37,9.09v19.86h-8.25v-38.06h8.25v2.62c1.94-1.74,4.98-3.49,9.33-3.49,4.71,0,8.88,2.02,11.16,5.39,1.9,2.8,2.25,5.75,2.25,10.2v23.33h-8.25Z"/>
      <path class="cls-5" d="M521.75,108.31c4.25,0,8.16,1.74,10.33,4.95,1.82,2.69,2.08,5.65,2.08,9.65v22.33h-6.25v-22.16c0-2.17-.17-4.69-1.65-6.6-1.22-1.56-3.13-2.61-5.9-2.61-2.17,0-4.52.61-6.34,2.78-2.43,2.87-2.61,7.13-2.61,9.73v18.86h-6.25v-36.06h6.25v4.17c1.13-1.48,4.34-5.04,10.33-5.04M521.75,106.31c-3.57,0-6.31,1.1-8.33,2.45v-1.58h-10.25v40.06h10.25v-20.86c0-2.76.24-6.21,2.13-8.44,1.17-1.4,2.74-2.07,4.81-2.07,1.92,0,3.38.62,4.33,1.83,1.08,1.4,1.23,3.41,1.23,5.38v24.16h10.25v-24.33c0-3.78-.19-7.45-2.43-10.77-2.46-3.65-6.95-5.83-11.99-5.83h0Z"/>
    </g>
    <g>
      <path class="cls-4" d="M562.55,147.28c-12.99,0-18.8-9.97-18.8-19.86,0-11.84,7.59-20.12,18.45-20.12,8.64,0,12.99,4.92,14.45,7.03,2.32,3.3,3.75,8.99,3.56,14.16l-.04.96h-27.96c.5,6,4.74,10.25,10.41,10.25,2.66,0,4.8-.75,6.74-2.38,1.43-1.2,2.69-2.88,3.46-4.6l.45-.99,7.01,3.86-.45.87c-1.19,2.28-2.88,4.51-4.64,6.1-3.48,3.11-7.73,4.69-12.65,4.69ZM571.54,122.25c-1.28-4.46-4.91-7.38-9.33-7.38s-8.07,3.04-9.33,7.38h18.67Z"/>
      <path class="cls-5" d="M562.21,108.31c7.03,0,11.46,3.48,13.63,6.6,2.26,3.22,3.56,8.78,3.39,13.56h-28.04c.09,7.47,5.21,12.25,11.46,12.25,2.95,0,5.3-.87,7.38-2.61,1.65-1.39,2.95-3.22,3.73-4.95l5.21,2.87c-1.04,2-2.6,4.17-4.43,5.82-3.3,2.95-7.38,4.43-11.98,4.43-8.68,0-17.8-5.47-17.8-18.86,0-10.77,6.6-19.12,17.45-19.12M551.61,123.25h21.18c-1.04-5.65-5.3-9.38-10.59-9.38s-9.64,4-10.59,9.38M562.21,106.31c-11.45,0-19.45,8.68-19.45,21.12,0,14.41,9.94,20.86,19.8,20.86,5.17,0,9.65-1.66,13.32-4.94,1.85-1.68,3.62-4,4.87-6.39l.9-1.73-1.71-.94-5.21-2.87-1.71-.94h8.14l.07-1.93c.2-5.37-1.31-11.31-3.75-14.78-1.55-2.23-6.15-7.45-15.27-7.45h0ZM554.29,121.25c1.42-3.26,4.43-5.38,7.92-5.38s6.51,2.05,7.92,5.38h-15.84ZM553.35,130.47h19.42l-.84,1.87c-.71,1.59-1.88,3.13-3.2,4.24-1.77,1.48-3.65,2.14-6.09,2.14-4.86,0-8.47-3.3-9.29-8.25h0Z"/>
    </g>
    <g>
      <path class="cls-4" d="M599.63,147.28c-2.4,0-10.45-.71-13.54-9.89l-.3-.88,7.21-3.03.36.99c.57,1.58,2.34,5.25,6.35,5.25,3.37,0,4.9-2.45,4.9-4.73,0-2.68-1.79-3.58-5.22-5.08-4.17-1.84-7.27-3.31-9.14-5.58-1.66-2.07-1.88-4.16-1.88-5.94,0-6.63,4.62-11.08,11.5-11.08,4.84,0,8.68,2.52,10.8,7.1l.4.86-6.93,3.65-.42-1.01c-.79-1.9-2.33-3.03-4.11-3.03-1.62,0-3.34.81-3.34,3.08,0,1.82.92,2.38,5.21,4.21,4.98,2.08,7.8,3.83,9.42,5.86,1.89,2.31,2.13,4.66,2.13,6.45,0,7.67-5.39,12.82-13.42,12.82Z"/>
      <path class="cls-5" d="M599.89,108.31c1.91,0,7.03.35,9.9,6.52l-5.12,2.69c-.87-2.09-2.69-3.65-5.04-3.65s-4.34,1.3-4.34,4.08c0,2.61,1.74,3.39,5.82,5.13,5.21,2.17,7.64,3.82,9.03,5.56,1.56,1.91,1.91,3.82,1.91,5.82,0,7.56-5.47,11.82-12.42,11.82-1.48,0-9.55-.17-12.59-9.21l5.38-2.26c.69,1.91,2.78,5.91,7.29,5.91,4.08,0,5.9-3.04,5.9-5.74,0-3.39-2.43-4.52-5.82-6-4.34-1.91-7.12-3.3-8.77-5.3-1.39-1.74-1.65-3.48-1.65-5.3,0-6.34,4.43-10.08,10.5-10.08M599.89,106.31c-7.48,0-12.5,4.85-12.5,12.08,0,1.95.25,4.25,2.09,6.55,2.03,2.46,5.23,3.99,9.52,5.88,3.7,1.61,4.62,2.27,4.62,4.17,0,.38-.11,3.74-3.9,3.74-3.38,0-4.91-3.21-5.41-4.59l-.72-1.98-1.94.81-5.38,2.26-1.71.72.59,1.76c3.3,9.81,11.92,10.57,14.48,10.57,8.62,0,14.42-5.55,14.42-13.82,0-1.95-.27-4.53-2.36-7.09-1.74-2.18-4.59-3.96-9.81-6.14-4.25-1.81-4.59-2.15-4.59-3.28,0-1.81,1.47-2.08,2.34-2.08,1.37,0,2.56.9,3.19,2.42l.84,2.02,1.94-1.02,5.12-2.69,1.68-.89-.8-1.73c-2.3-4.95-6.46-7.67-11.71-7.67h0Z"/>
    </g>
    <g>
      <path class="cls-4" d="M631.23,147.28c-2.4,0-10.45-.71-13.54-9.89l-.3-.88,7.21-3.03.36.99c.57,1.58,2.34,5.25,6.35,5.25,3.37,0,4.9-2.45,4.9-4.73,0-2.68-1.79-3.58-5.22-5.08-4.83-2.12-7.42-3.5-9.14-5.58-1.66-2.07-1.88-4.16-1.88-5.94,0-6.63,4.62-11.08,11.51-11.08,4.84,0,8.68,2.52,10.8,7.1l.4.86-6.93,3.65-.42-1.01c-.79-1.9-2.33-3.03-4.11-3.03-1.62,0-3.34.81-3.34,3.08,0,1.82.92,2.38,5.21,4.21,4.98,2.08,7.8,3.83,9.42,5.86,1.89,2.31,2.13,4.66,2.13,6.45,0,7.67-5.39,12.82-13.42,12.82Z"/>
      <path class="cls-5" d="M631.49,108.31c1.91,0,7.03.35,9.9,6.52l-5.12,2.69c-.87-2.09-2.69-3.65-5.04-3.65s-4.34,1.3-4.34,4.08c0,2.61,1.74,3.39,5.82,5.13,5.21,2.17,7.64,3.82,9.03,5.56,1.56,1.91,1.91,3.82,1.91,5.82,0,7.56-5.47,11.82-12.42,11.82-1.48,0-9.55-.17-12.59-9.21l5.38-2.26c.69,1.91,2.78,5.91,7.29,5.91,4.08,0,5.9-3.04,5.9-5.74,0-3.39-2.43-4.52-5.82-6-4.34-1.91-7.12-3.3-8.77-5.3-1.39-1.74-1.65-3.48-1.65-5.3,0-6.34,4.43-10.08,10.51-10.08M631.49,106.31c-7.48,0-12.51,4.85-12.51,12.08,0,1.95.25,4.25,2.09,6.55,2.03,2.46,5.23,3.99,9.53,5.88,3.69,1.61,4.62,2.27,4.62,4.17,0,.38-.11,3.74-3.9,3.74-3.38,0-4.91-3.21-5.41-4.59l-.72-1.97-1.94.81-5.38,2.26-1.71.72.59,1.76c3.3,9.81,11.92,10.57,14.49,10.57,8.62,0,14.42-5.55,14.42-13.82,0-1.95-.27-4.53-2.36-7.09-1.74-2.18-4.59-3.97-9.81-6.14-4.25-1.81-4.59-2.15-4.59-3.28,0-1.81,1.47-2.08,2.34-2.08,1.37,0,2.56.9,3.19,2.42l.84,2.02,1.94-1.02,5.12-2.69,1.69-.89-.8-1.73c-2.3-4.95-6.46-7.67-11.71-7.67h0Z"/>
    </g>
  </g>
</svg>