<?xml version="1.0" encoding="UTF-8"?>
<svg id="Layer_1" data-name="Layer 1" xmlns="http://www.w3.org/2000/svg" viewBox="0 0 250 62.14">
  <defs>
    <style>
      .cls-1 {
        fill: #fff;
        stroke-width: 0px;
      }
    </style>
  </defs>
  <g id="NEwf9V.tif">
    <g>
      <path class="cls-1" d="M27.22,47.55c-.8.34-1.61.65-2.39,1.01-1.88.88-3.28.72-4.76-.73-2.01-1.96-3.95-3.98-5.92-5.98-1.46-1.47-1.62-3.13-.74-4.96.31-.64.56-1.3.83-1.95.21-.39.44-.78.63-1.18,1.33-2.82,2.59-5.68,4-8.46,1.63-3.21,3.38-6.36,5.08-9.54,1.79-2.25,3.46-4.6,5.39-6.72,3.74-4.12,8.55-6.52,13.83-8.02,4.95-1.41,9.98-1.17,15.01-.47,1.94.27,3.09,1.42,3.37,3.34,1.1,7.57.52,14.9-3.18,21.77-1.96,3.64-4.65,6.67-7.85,9.26-1.41,1.13-2.88,2.18-4.33,3.26-.21.08-.42.15-.62.25-3.99,2.05-7.96,4.12-11.96,6.13-2.1,1.05-4.25,1.99-6.38,2.97ZM51.34,15.53c-.01-2.65-2.12-4.74-4.83-4.79-2.57-.05-4.86,2.21-4.87,4.79,0,2.55,2.26,4.85,4.81,4.88,2.63.03,4.9-2.24,4.88-4.87Z"/>
      <path class="cls-1" d="M27.22,47.55c2.13-.99,4.28-1.92,6.38-2.97,4-2.01,7.98-4.09,11.96-6.13.2-.1.41-.17.62-.25-.04,3.74.07,7.49-.16,11.22-.17,2.7-1.93,4.58-4.15,5.98-3.22,2.02-6.46,4.01-9.71,5.97-.57.34-1.22.6-1.87.73-1.58.31-3.08-1.05-3.09-2.81-.02-3.91,0-7.82.01-11.74Z"/>
      <path class="cls-1" d="M23.95,15.77c-1.7,3.18-3.45,6.32-5.08,9.54-1.41,2.78-2.67,5.64-4,8.46-.19.4-.42.79-.63,1.18-3.69,0-7.38,0-11.07,0-1.18,0-2.17-.34-2.78-1.41-.62-1.09-.46-2.14.18-3.2,2-3.32,3.96-6.66,5.96-9.98,1.84-3.05,4.6-4.55,8.11-4.62,3.1-.06,6.21,0,9.32.01Z"/>
    </g>
  </g>
  <g>
    <path class="cls-1" d="M68.49,15.99c3.48,2.26,7,3.09,8.55,3.09,1.08,0,1.33-.43,1.33-.86,0-.5-.32-.72-.79-.83-1.26-.32-4.88-.72-7.54-3.05-1.36-1.22-2.3-2.91-2.3-5.42,0-5.21,4.02-8.76,10.6-8.76,3.16,0,6.9.83,9.27,2.05v8.51c-3.38-1.69-6.54-2.3-7.87-2.3-1.04,0-1.33.39-1.33.79,0,.54.39.75.83.9,1.08.32,4.67.75,7.22,2.77,1.76,1.44,2.62,3.27,2.62,5.6,0,4.99-4.02,8.48-10.85,8.48-3.27,0-7.18-.79-9.73-2.12v-8.84Z"/>
    <path class="cls-1" d="M97.04,9.38h-7.26V.55h25.21v8.84h-7.26v17.17h-10.7V9.38Z"/>
    <path class="cls-1" d="M121.68.55h10.24l9.91,26h-11.56l-.9-3.41h-5.96l-1.01,3.41h-10.63L121.68.55ZM127.64,16.6l-1.15-5.28h-.07l-1.15,5.28h2.37Z"/>
    <path class="cls-1" d="M143.62.55h10.49c5.39,0,12.64,1.4,12.64,8.15,0,2.87-1.15,4.92-3.02,6.29.32,1.4,1.4,2.48,3.59,2.48,1.72,0,3.74-.61,5.42-1.87v9.48c-1.58,1.04-4.2,1.87-6.9,1.87-6.14,0-10.42-3.84-11.46-9.02h-.07v8.62h-10.7V.55ZM155.12,12.04c1.69,0,2.44-.9,2.44-2.01s-.79-1.98-2.44-1.98h-.79v3.99h.79Z"/>
    <path class="cls-1" d="M176.27,9.38h-7.26V.55h25.21v8.84h-7.26v17.17h-10.7V9.38Z"/>
    <path class="cls-1" d="M196.99,14.73V.55h10.7v13.47c0,2.44.79,4.17,3.27,4.17s3.2-1.51,3.2-4.13V.55h9.63v14.04c0,3.99-1.01,6.5-2.37,8.15-2.37,2.87-6.68,4.2-11.1,4.2s-8.58-1.44-10.88-4.13c-1.29-1.51-2.44-3.84-2.44-8.08Z"/>
    <path class="cls-1" d="M226.91.55h9.84c6.25,0,13.25,1.8,13.25,9.23,0,6.68-5.6,9.37-12.03,9.37h-.36v7.4h-10.7V.55ZM237.9,12.54c1.83,0,2.69-.97,2.69-2.19s-.9-2.19-2.69-2.19h-.29v4.38h.29Z"/>
  </g>
  <g>
    <path class="cls-1" d="M67.8,55.5v-23.43l17.53,18.38v-17.43h2.5v23.5l-17.53-18.38v17.36h-2.5Z"/>
    <path class="cls-1" d="M105.83,51.92c-.4.78-1.01,1.62-1.72,2.26-1.28,1.15-2.87,1.72-4.65,1.72-3.37,0-6.91-2.12-6.91-7.32,0-4.18,2.56-7.42,6.78-7.42,2.73,0,4.45,1.35,5.29,2.56.88,1.25,1.38,3.41,1.32,5.26h-10.89c.03,2.9,2.02,4.75,4.45,4.75,1.15,0,2.06-.34,2.87-1.01.64-.54,1.15-1.25,1.45-1.92l2.02,1.11ZM103.44,46.97c-.4-2.19-2.06-3.64-4.11-3.64s-3.74,1.55-4.11,3.64h8.23Z"/>
    <path class="cls-1" d="M110.72,41.5l4.15,9.51,4.38-10.59,4.35,10.59,4.18-9.51h2.7l-6.95,14.97-4.32-10.45-4.32,10.45-6.88-14.97h2.7Z"/>
    <path class="cls-1" d="M146.36,33.01c1.25,0,3.51.1,5.16,1.42.71.54,2.02,1.92,2.02,4.65,0,1.11-.24,3.07-2.23,4.42,3.14.78,4.28,3.51,4.28,5.66s-1.08,3.91-2.29,4.86c-1.79,1.42-3.84,1.48-5.39,1.48h-5.6v-22.49h4.05ZM144.81,42.89h1.89c1.31,0,4.42-.27,4.42-3.74,0-3.71-3.64-3.78-4.35-3.78h-1.96v7.52ZM144.81,53.14h2.87c1.45,0,2.87-.1,3.94-.94.88-.64,1.48-1.75,1.48-3.1,0-1.79-1.05-2.83-1.92-3.3-.84-.47-2.02-.67-3.81-.67h-2.56v8.02Z"/>
    <path class="cls-1" d="M162.41,49.66c0,.98,0,2.12.67,3,.37.47,1.11,1.08,2.46,1.08s2.09-.61,2.46-1.08c.67-.88.67-2.02.67-3v-8.16h2.43v8.43c0,1.72-.17,3-1.28,4.21-1.25,1.31-2.9,1.75-4.28,1.75s-3.03-.44-4.28-1.75c-1.11-1.21-1.28-2.5-1.28-4.21v-8.43h2.43v8.16Z"/>
    <path class="cls-1" d="M181.87,44.74c-.34-.81-1.05-1.42-1.96-1.42s-1.69.51-1.69,1.58c0,1.01.67,1.32,2.26,1.99,2.02.84,2.97,1.48,3.51,2.16.61.74.74,1.48.74,2.26,0,2.93-2.12,4.59-4.82,4.59-.57,0-3.71-.07-4.89-3.57l2.09-.88c.27.74,1.08,2.29,2.83,2.29,1.58,0,2.29-1.18,2.29-2.23,0-1.32-.94-1.75-2.26-2.33-1.69-.74-2.76-1.28-3.41-2.06-.54-.67-.64-1.35-.64-2.06,0-2.46,1.72-3.91,4.08-3.91.74,0,2.73.13,3.84,2.53l-1.99,1.05Z"/>
    <path class="cls-1" d="M189.59,34.49c.94,0,1.72.78,1.72,1.72s-.78,1.72-1.72,1.72-1.72-.78-1.72-1.72.78-1.72,1.72-1.72ZM190.8,41.5v13.99h-2.43v-13.99h2.43Z"/>
    <path class="cls-1" d="M195.79,41.5h2.43v1.62c.44-.57,1.69-1.96,4.01-1.96,1.65,0,3.17.67,4.01,1.92.71,1.05.81,2.19.81,3.74v8.67h-2.43v-8.6c0-.84-.07-1.82-.64-2.56-.47-.61-1.21-1.01-2.29-1.01-.84,0-1.75.24-2.46,1.08-.94,1.11-1.01,2.76-1.01,3.78v7.32h-2.43v-13.99Z"/>
    <path class="cls-1" d="M224.45,51.92c-.4.78-1.01,1.62-1.72,2.26-1.28,1.15-2.87,1.72-4.65,1.72-3.37,0-6.91-2.12-6.91-7.32,0-4.18,2.56-7.42,6.78-7.42,2.73,0,4.45,1.35,5.29,2.56.88,1.25,1.38,3.41,1.32,5.26h-10.89c.03,2.9,2.02,4.75,4.45,4.75,1.15,0,2.06-.34,2.87-1.01.64-.54,1.15-1.25,1.45-1.92l2.02,1.11ZM222.06,46.97c-.4-2.19-2.06-3.64-4.11-3.64s-3.74,1.55-4.11,3.64h8.23Z"/>
    <path class="cls-1" d="M234.43,44.74c-.34-.81-1.05-1.42-1.96-1.42s-1.69.51-1.69,1.58c0,1.01.67,1.32,2.26,1.99,2.02.84,2.97,1.48,3.51,2.16.61.74.74,1.48.74,2.26,0,2.93-2.12,4.59-4.82,4.59-.57,0-3.71-.07-4.89-3.57l2.09-.88c.27.74,1.08,2.29,2.83,2.29,1.58,0,2.29-1.18,2.29-2.23,0-1.32-.94-1.75-2.26-2.33-1.69-.74-2.76-1.28-3.41-2.06-.54-.67-.64-1.35-.64-2.06,0-2.46,1.72-3.91,4.08-3.91.74,0,2.73.13,3.84,2.53l-1.99,1.05Z"/>
    <path class="cls-1" d="M246.71,44.74c-.34-.81-1.05-1.42-1.96-1.42s-1.69.51-1.69,1.58c0,1.01.67,1.32,2.26,1.99,2.02.84,2.97,1.48,3.51,2.16.61.74.74,1.48.74,2.26,0,2.93-2.12,4.59-4.82,4.59-.57,0-3.71-.07-4.89-3.57l2.09-.88c.27.74,1.08,2.29,2.83,2.29,1.58,0,2.29-1.18,2.29-2.23,0-1.32-.94-1.75-2.26-2.33-1.69-.74-2.76-1.28-3.41-2.06-.54-.67-.64-1.35-.64-2.06,0-2.46,1.72-3.91,4.08-3.91.74,0,2.73.13,3.84,2.53l-1.99,1.05Z"/>
  </g>
</svg>